<?xml version="1.0" encoding="UTF-8" standalone="no"?>
<svg
   viewBox="0 0 36 36"
   version="1.1"
   id="svg10"
   sodipodi:docname="beeicon.svg"
   inkscape:version="1.1.2 (0a00cf5339, 2022-02-04)"
   xmlns:inkscape="http://www.inkscape.org/namespaces/inkscape"
   xmlns:sodipodi="http://sodipodi.sourceforge.net/DTD/sodipodi-0.dtd"
   xmlns="http://www.w3.org/2000/svg"
   xmlns:svg="http://www.w3.org/2000/svg">
  <defs
     id="defs14" />
  <sodipodi:namedview
     id="namedview12"
     pagecolor="#ffffff"
     bordercolor="#666666"
     borderopacity="1.0"
     inkscape:pageshadow="2"
     inkscape:pageopacity="0.0"
     inkscape:pagecheckerboard="0"
     showgrid="false"
     inkscape:zoom="20.166667"
     inkscape:cx="17.975207"
     inkscape:cy="18"
     inkscape:window-width="1280"
     inkscape:window-height="987"
     inkscape:window-x="0"
     inkscape:window-y="0"
     inkscape:window-maximized="1"
     inkscape:current-layer="svg10" />
  <path
     fill="#31373d"
     d="m 27.816,23.464 c 0.299,-1.148 0.465,-2.318 0.465,-3.464 0,-4.161 -2.122,-6.779 -5.258,-8.035 0.417,-1.008 0.665,-2.108 0.665,-3.2 0,-1.581 -0.495,-2.498 -1.315,-3.032 C 23.464,5.251 24.89,4.233 25.4,3.722 26.181,2.941 26.34,1.833 25.754,1.247 25.168,0.661 25.088182,1.5796534 24.306182,2.3616534 23.695182,2.9726534 21.331,4.131 21.056,5.22 20.172,5.025 19.126,5 18,5 16.875,5 15.828,5.025 14.945,5.219 14.67,4.13 12.10902,2.7663647 11.49802,2.1543647 10.71702,1.3733647 10.833,0.66 10.247,1.246 9.662,1.833 9.82,2.94 10.601,3.722 c 0.511,0.511 1.937,1.529 3.027,2.011 -0.821,0.533 -1.316,1.451 -1.316,3.032 0,1.093 0.248,2.192 0.665,3.2 -3.136,1.256 -5.258,3.874 -5.258,8.035 0,1.146 0.167,2.317 0.465,3.464 v 0.023 L 8.19,23.484 c 1.209,4.621 4.643,8.847 8.812,9.44 L 17,33 c 0,1.657 0.448,3 1,3 0.553,0 1,-1.343 1,-3 0,-0.026 -0.002,-0.049 -0.003,-0.075 4.169,-0.593 7.604,-4.819 8.813,-9.44 l 0.006,0.003 z"
     id="path2"
     sodipodi:nodetypes="cscsccsscscccccscscccccsscccc" />
  <path
     d="M14.624 19h6.752c-1.462-1.424-2.615-2.881-3.106-4h-.54c-.491 1.119-1.644 2.576-3.106 4zm-5.378 4c-.361.187-.715.349-1.062.488.32 1.219.799 2.407 1.401 3.512h16.83c.602-1.105 1.082-2.293 1.401-3.512-.347-.139-.701-.301-1.063-.488H9.246zm3.593 8c1.518 1.234 3.278 2 5.161 2 1.884 0 3.643-.766 5.162-2H12.839z"
     fill="#FFCC4D"
     id="path4" />
  <path
     fill="#CCD6DD"
     d="M18 13.505c0 2.647-7.858 8.584-12 8.584s-6-2.443-6-5.09c0-2.646 1.858-4.495 6-4.495 4.143.001 12-1.644 12 1.001zm0 0c0 2.647 7.857 8.584 12 8.584s6-2.443 6-5.09c0-2.646-1.857-4.495-6-4.495s-12-1.644-12 1.001z"
     id="path6" />
  <path
     fill="#99AAB5"
     d="M2 19c-.552 0-1-.447-1-1 0-.551.446-.999.998-1 .048 0 4.949-.07 13.596-3.914.505-.227 1.096.002 1.32.507.225.505-.003 1.096-.507 1.32C7.317 18.953 2.213 19 2 19zm32 0c-.213 0-5.316-.047-14.406-4.086-.505-.224-.731-.815-.508-1.32.225-.504.817-.732 1.32-.507C29.054 16.93 33.954 17 34.003 17c.551.003.997.452.996 1.003-.002.551-.448.997-.999.997z"
     id="path8" />
</svg>
