<?xml version="1.0" encoding="UTF-8" standalone="no"?>
<svg
   version="1.0"
   width="17.781998"
   height="17.952408"
   xmlns="http://www.w3.org/2000/svg"
   xmlns:svg="http://www.w3.org/2000/svg">
  <path
     d="M 7.2091729,3.5881309 C 6.3435033,3.2393812 7.7171042,2.631356 8.158727,2.6150895 8.4001531,2.4178079 8.9491535,2.0876436 8.8156605,2.0395469 8.6373942,1.2897093 8.7825762,0.37111649 9.7749516,0.49665553 10.549905,1.1865063 10.654673,0.88285908 11.360369,1.5759031 c -0.05958,0.518448 1.016005,9.727e-4 0.627527,0.6392707 0.01903,0.5514348 0.73403,0.3729464 0.896764,-0.040825 -0.193978,0.6258399 0.574766,0.9470497 0.985264,1.1742931 0.469578,0.095909 1.25875,-0.1571957 1.453546,0.5570007 0.293133,-0.089567 0.624337,0.2056051 0.958248,0.023137 0.313709,0.3153953 1.409443,0.050438 0.731039,0.767866 -0.410582,0.6397785 -0.461028,1.4320865 -0.474435,2.1926353 0.27036,0.7776066 -0.910398,0.024318 -0.591396,0.6523465 -0.364331,0.6122078 -1.248348,1.2268738 -1.058301,1.9380824 -0.399598,0.3556851 -0.0046,0.5797502 0.173648,0.095157 0.285536,-0.462548 0.887492,-0.1985418 0.838365,0.3642363 0.474881,0.3535879 -0.375452,0.6902019 0.188959,0.9449539 0.514185,0.43165 0.05474,0.88056 -0.400457,0.998676 0.182993,0.421213 0.867063,0.569136 0.391835,1.085534 -0.0928,0.790415 0.870446,0.578931 1.173238,0.743883 -0.09351,0.715022 -0.777637,1.047717 -1.266559,1.487991 0.02229,0.52422 -0.581121,0.399641 -0.835989,0.729965 -0.131215,-0.160476 -0.595734,0.02671 -0.79357,-0.287828 -0.394476,-0.131279 -0.496795,-0.242573 -0.937377,-0.388578 -0.147421,0.241869 -0.471901,0.161152 -0.544433,-0.08214 -0.579235,-0.04675 -1.022458,-0.201948 -1.44651,0.334446 -0.462916,0.186251 -0.925414,0.35067 -0.657587,0.868431 -0.07868,0.492708 0.418621,0.969309 -0.320447,0.794732 C 10.100037,17.59993 9.606503,17.093529 9.2188259,17.304242 8.8914537,16.783266 7.950913,16.441166 7.3720678,16.469401 7.0372118,17.098381 6.098626,16.255279 5.5702423,16.420763 5.2401517,15.850674 4.1829061,16.124033 4.3741864,15.43759 3.4290824,15.397744 4.7185797,14.771721 4.538254,14.227244 4.6341692,13.701176 4.8275095,12.841591 4.9976623,12.65384 4.5619543,12.807022 5.0572462,11.690176 4.9773505,11.329053 5.1136242,10.365636 5.8313571,12.660833 5.5851736,11.47918 5.3846647,11.024469 4.5500757,10.560475 4.8024865,10.131839 4.9905166,10.392 5.0707194,10.725405 5.0753797,10.205093 5.4179597,9.9651971 3.9792922,9.5270775 4.8850662,9.8125223 5.3859071,9.484353 3.9198239,9.3972807 4.0080602,8.7793032 3.84044,7.741658 3.6505191,7.5318364 3.4444492,7.3118204 3.3945453,7.0697457 2.5685115,7.1847933 3.0729208,6.9747829 2.6867442,6.7872796 2.5408111,7.4653701 2.4307249,6.8105436 1.8822674,6.6025943 1.3481945,6.2820482 0.9632593,5.8394724 1.575506,5.757018 0.28983334,5.3979946 1.0229012,5.4637368 1.4178928,5.4084718 0.85178791,5.1967574 0.59743388,5.3515612 0.46705283,4.4848478 1.6255886,4.8796232 2.0149097,4.7244803 2.213803,4.4961094 3.0417684,4.309159 3.1234698,4.9771898 3.3138947,5.4154726 3.6718442,4.6973994 4.024997,5.0145234 4.3947509,4.7028753 4.4935542,5.3569525 4.9477324,4.9983024 4.5451864,4.6528643 4.8722121,3.8058546 4.4495926,3.3555584 4.1725293,2.6399073 4.6475681,3.1456207 5.1088027,2.9884895 5.2149984,3.3548593 5.3109188,3.8180027 5.9068957,3.6771334 6.4005998,3.8959896 6.7122856,3.8362995 7.179171,3.5915859"
     style="fill:none;stroke:#0a58ca;stroke-width:0.97696;stroke-dasharray:none;stroke-opacity:1" />
</svg>
